<svg width="115" height="31" viewBox="0 0 115 31" fill="none" xmlns="http://www.w3.org/2000/svg">
<path d="M0.797585 30V1.63636H11.4339C13.6129 1.63636 15.4411 2.01491 16.9183 2.77202C18.4048 3.52912 19.5266 4.59091 20.2837 5.95738C21.0501 7.31463 21.4332 8.89808 21.4332 10.7077C21.4332 12.5266 21.0455 14.1055 20.2699 15.4442C19.5036 16.7738 18.3725 17.8033 16.8768 18.5327C15.381 19.2528 13.5437 19.6129 11.3647 19.6129H3.78906V15.3473H10.6722C11.9464 15.3473 12.9897 15.1719 13.8022 14.821C14.6147 14.4609 15.2148 13.9393 15.6026 13.256C15.9996 12.5636 16.1982 11.7141 16.1982 10.7077C16.1982 9.70135 15.9996 8.84268 15.6026 8.13175C15.2056 7.41158 14.6009 6.86683 13.7884 6.49751C12.9759 6.11896 11.9279 5.92969 10.6445 5.92969H5.93572V30H0.797585ZM15.4503 17.1477L22.4719 30H16.7383L9.84126 17.1477H15.4503ZM35.0542 30.4155C32.9213 30.4155 31.0794 29.9723 29.5282 29.0859C27.9863 28.1903 26.7999 26.9254 25.9689 25.2912C25.138 23.6477 24.7225 21.7134 24.7225 19.4883C24.7225 17.3001 25.138 15.3796 25.9689 13.7269C26.8091 12.065 27.9817 10.7724 29.4867 9.84908C30.9917 8.91655 32.7598 8.45028 34.791 8.45028C36.1021 8.45028 37.3393 8.66264 38.5027 9.08736C39.6752 9.50284 40.7093 10.1491 41.6049 11.0263C42.5098 11.9034 43.2207 13.0206 43.7377 14.3778C44.2548 15.7259 44.5133 17.3324 44.5133 19.1974V20.7347H27.0769V17.3555H39.7076C39.6983 16.3952 39.4906 15.5412 39.0843 14.7933C38.6781 14.0362 38.1103 13.4407 37.3809 13.0067C36.6607 12.5728 35.8205 12.3558 34.8603 12.3558C33.8354 12.3558 32.9352 12.6051 32.1596 13.1037C31.3841 13.593 30.7793 14.2393 30.3453 15.0426C29.9206 15.8366 29.7037 16.7092 29.6944 17.6602V20.6101C29.6944 21.8473 29.9206 22.9091 30.373 23.7955C30.8255 24.6726 31.4579 25.3466 32.2704 25.8175C33.0829 26.2791 34.0339 26.5099 35.1234 26.5099C35.8528 26.5099 36.513 26.4084 37.1039 26.2053C37.6948 25.9929 38.2072 25.6836 38.6412 25.2773C39.0751 24.8711 39.4029 24.3679 39.6245 23.7678L44.3056 24.294C44.0101 25.5312 43.4469 26.6115 42.6159 27.5348C41.7942 28.4489 40.7417 29.1598 39.4583 29.6676C38.1749 30.1662 36.7069 30.4155 35.0542 30.4155ZM53.7682 17.5355V30H48.7547V8.72727H53.5466V12.342H53.7959C54.2852 11.1509 55.0654 10.2045 56.1365 9.50284C57.2167 8.80114 58.5509 8.45028 60.1389 8.45028C61.607 8.45028 62.8857 8.7642 63.9752 9.39204C65.074 10.0199 65.9234 10.9293 66.5235 12.1204C67.1329 13.3114 67.433 14.7564 67.4237 16.4553V30H62.4102V17.2308C62.4102 15.8089 62.0409 14.6964 61.3023 13.8931C60.5729 13.0898 59.5619 12.6882 58.2693 12.6882C57.3921 12.6882 56.6119 12.8821 55.9287 13.2699C55.2547 13.6484 54.7238 14.1978 54.336 14.918C53.9575 15.6381 53.7682 16.5107 53.7682 17.5355ZM83.1428 8.72727V12.6051H70.9138V8.72727H83.1428ZM73.933 3.63068H78.9465V23.6016C78.9465 24.2756 79.048 24.7926 79.2512 25.1527C79.4635 25.5036 79.7405 25.7436 80.0821 25.8729C80.4237 26.0021 80.8023 26.0668 81.2178 26.0668C81.5317 26.0668 81.8179 26.0437 82.0764 25.9975C82.3442 25.9513 82.5473 25.9098 82.6858 25.8729L83.5306 29.7923C83.2629 29.8846 82.8797 29.9862 82.3811 30.0969C81.8918 30.2077 81.2916 30.2724 80.5807 30.2908C79.325 30.3278 78.194 30.1385 77.1876 29.723C76.1812 29.2983 75.3825 28.6428 74.7916 27.7564C74.21 26.87 73.9237 25.7621 73.933 24.4325V3.63068ZM87.3358 30V8.72727H92.3493V30H87.3358ZM89.8564 5.7081C89.0623 5.7081 88.3791 5.44496 87.8066 4.91868C87.2342 4.38317 86.948 3.74148 86.948 2.99361C86.948 2.2365 87.2342 1.59481 87.8066 1.06854C88.3791 0.533024 89.0623 0.265269 89.8564 0.265269C90.6596 0.265269 91.3429 0.533024 91.9061 1.06854C92.4785 1.59481 92.7647 2.2365 92.7647 2.99361C92.7647 3.74148 92.4785 4.38317 91.9061 4.91868C91.3429 5.44496 90.6596 5.7081 89.8564 5.7081ZM97.2277 30V26.8146L108.196 13.0621V12.8821H97.5878V8.72727H114.332V12.1481L103.889 25.6651V25.8452H114.692V30H97.2277Z" fill="white"/>
</svg>
